<mxfile host="app.diagrams.net" modified="2023-09-16T16:24:59.607Z" agent="Mozilla/5.0 (Windows NT 10.0; Win64; x64) AppleWebKit/537.36 (KHTML, like Gecko) Chrome/116.0.0.0 Safari/537.36" etag="mgRg8dPaActJiMQ54tK3" version="21.7.5" type="device" pages="3">
  <diagram name="Page-1" id="TurCp1DOBdtXsJrMf-hN">
    <mxGraphModel dx="1147" dy="1732" grid="1" gridSize="10" guides="1" tooltips="1" connect="1" arrows="1" fold="1" page="1" pageScale="1" pageWidth="850" pageHeight="1100" math="0" shadow="0">
      <root>
        <mxCell id="0" />
        <mxCell id="1" parent="0" />
        <mxCell id="8Dzk1mlNiPDe_cIW5CHu-34" style="edgeStyle=orthogonalEdgeStyle;rounded=0;orthogonalLoop=1;jettySize=auto;html=1;exitX=0.5;exitY=1;exitDx=0;exitDy=0;exitPerimeter=0;entryX=0.5;entryY=0;entryDx=0;entryDy=0;" edge="1" parent="1" source="8Dzk1mlNiPDe_cIW5CHu-1" target="8Dzk1mlNiPDe_cIW5CHu-3">
          <mxGeometry relative="1" as="geometry" />
        </mxCell>
        <mxCell id="8Dzk1mlNiPDe_cIW5CHu-1" value="&lt;b&gt;START&lt;/b&gt;" style="strokeWidth=2;html=1;shape=mxgraph.flowchart.terminator;whiteSpace=wrap;" vertex="1" parent="1">
          <mxGeometry x="375.5" y="-20" width="100" height="60" as="geometry" />
        </mxCell>
        <mxCell id="8Dzk1mlNiPDe_cIW5CHu-2" value="&lt;b&gt;END&lt;/b&gt;" style="strokeWidth=2;html=1;shape=mxgraph.flowchart.terminator;whiteSpace=wrap;" vertex="1" parent="1">
          <mxGeometry x="390.5" y="1490" width="100" height="60" as="geometry" />
        </mxCell>
        <mxCell id="8Dzk1mlNiPDe_cIW5CHu-68" style="edgeStyle=orthogonalEdgeStyle;rounded=0;orthogonalLoop=1;jettySize=auto;html=1;exitX=0.5;exitY=1;exitDx=0;exitDy=0;entryX=0.473;entryY=0.02;entryDx=0;entryDy=0;entryPerimeter=0;" edge="1" parent="1" source="8Dzk1mlNiPDe_cIW5CHu-3" target="8Dzk1mlNiPDe_cIW5CHu-7">
          <mxGeometry relative="1" as="geometry" />
        </mxCell>
        <mxCell id="8Dzk1mlNiPDe_cIW5CHu-3" value="" style="verticalLabelPosition=bottom;verticalAlign=top;html=1;shape=hexagon;perimeter=hexagonPerimeter2;arcSize=6;size=0.27;" vertex="1" parent="1">
          <mxGeometry x="250" y="63.75" width="360" height="120" as="geometry" />
        </mxCell>
        <mxCell id="8Dzk1mlNiPDe_cIW5CHu-40" style="edgeStyle=orthogonalEdgeStyle;rounded=0;orthogonalLoop=1;jettySize=auto;html=1;exitX=0.5;exitY=1;exitDx=0;exitDy=0;entryX=0.5;entryY=0;entryDx=0;entryDy=0;" edge="1" parent="1" source="8Dzk1mlNiPDe_cIW5CHu-7">
          <mxGeometry relative="1" as="geometry">
            <mxPoint x="440.6199999999999" y="330" as="targetPoint" />
          </mxGeometry>
        </mxCell>
        <mxCell id="8Dzk1mlNiPDe_cIW5CHu-7" value="&lt;p style=&quot;text-indent: -0.25in;&quot; class=&quot;MsoListParagraph&quot;&gt;&lt;span style=&quot;font-family: &amp;quot;Arial Narrow&amp;quot;, sans-serif;&quot; lang=&quot;EN-US&quot;&gt;&lt;font style=&quot;font-size: 12px;&quot;&gt;PROMPTS and GETS&lt;/font&gt;&lt;/span&gt;&lt;/p&gt;&lt;p style=&quot;text-indent: -0.25in;&quot; class=&quot;MsoListParagraph&quot;&gt;&lt;span style=&quot;font-family: &amp;quot;Arial Narrow&amp;quot;, sans-serif;&quot; lang=&quot;EN-US&quot;&gt;&lt;font style=&quot;font-size: 12px;&quot;&gt;the number of units in the 1&lt;sup style=&quot;&quot;&gt;st&lt;/sup&gt; semester, firstUnits&lt;/font&gt;&lt;/span&gt;&lt;/p&gt;" style="shape=parallelogram;html=1;strokeWidth=2;perimeter=parallelogramPerimeter;whiteSpace=wrap;rounded=1;arcSize=12;size=0.23;" vertex="1" parent="1">
          <mxGeometry x="289.63" y="210" width="300" height="100" as="geometry" />
        </mxCell>
        <mxCell id="8Dzk1mlNiPDe_cIW5CHu-63" style="edgeStyle=orthogonalEdgeStyle;rounded=0;orthogonalLoop=1;jettySize=auto;html=1;exitX=0.5;exitY=1;exitDx=0;exitDy=0;" edge="1" parent="1" source="8Dzk1mlNiPDe_cIW5CHu-9" target="8Dzk1mlNiPDe_cIW5CHu-60">
          <mxGeometry relative="1" as="geometry" />
        </mxCell>
        <mxCell id="8Dzk1mlNiPDe_cIW5CHu-9" value="&lt;p style=&quot;text-indent: -0.25in;&quot; class=&quot;MsoListParagraph&quot;&gt;&lt;span style=&quot;font-family: &amp;quot;Arial Narrow&amp;quot;, sans-serif;&quot; lang=&quot;EN-US&quot;&gt;PROMPTS and GETS&lt;br/&gt;the number of units in the 2&lt;sup&gt;nd&lt;/sup&gt; semester = registrationFee + unitFee&lt;br/&gt;* secondUnits + penalty * (secondUnits / penaltyFraction), secondUnits&lt;/span&gt;&lt;/p&gt;" style="shape=parallelogram;html=1;strokeWidth=2;perimeter=parallelogramPerimeter;whiteSpace=wrap;rounded=1;arcSize=12;size=0.23;" vertex="1" parent="1">
          <mxGeometry x="210" y="510" width="460" height="160" as="geometry" />
        </mxCell>
        <mxCell id="8Dzk1mlNiPDe_cIW5CHu-49" style="edgeStyle=orthogonalEdgeStyle;rounded=0;orthogonalLoop=1;jettySize=auto;html=1;exitX=0.5;exitY=1;exitDx=0;exitDy=0;entryX=0.5;entryY=0;entryDx=0;entryDy=0;" edge="1" parent="1" source="8Dzk1mlNiPDe_cIW5CHu-11" target="8Dzk1mlNiPDe_cIW5CHu-12">
          <mxGeometry relative="1" as="geometry" />
        </mxCell>
        <mxCell id="8Dzk1mlNiPDe_cIW5CHu-11" value="&lt;p style=&quot;text-indent: -0.25in;&quot; class=&quot;MsoListParagraph&quot;&gt;&lt;font face=&quot;Arial Narrow, sans-serif&quot;&gt;DISPLAYS firstFee&lt;/font&gt;&lt;/p&gt;" style="shape=parallelogram;html=1;strokeWidth=2;perimeter=parallelogramPerimeter;whiteSpace=wrap;rounded=1;arcSize=12;size=0.23;" vertex="1" parent="1">
          <mxGeometry x="256" y="850" width="367.25" height="100" as="geometry" />
        </mxCell>
        <mxCell id="8Dzk1mlNiPDe_cIW5CHu-57" style="edgeStyle=orthogonalEdgeStyle;rounded=0;orthogonalLoop=1;jettySize=auto;html=1;exitX=0.5;exitY=1;exitDx=0;exitDy=0;" edge="1" parent="1" source="8Dzk1mlNiPDe_cIW5CHu-12" target="8Dzk1mlNiPDe_cIW5CHu-55">
          <mxGeometry relative="1" as="geometry" />
        </mxCell>
        <mxCell id="8Dzk1mlNiPDe_cIW5CHu-12" value="&lt;p style=&quot;text-indent: -0.25in;&quot; class=&quot;MsoListParagraph&quot;&gt;&lt;font face=&quot;Arial Narrow, sans-serif&quot;&gt;DISPLAYS secondFee&lt;/font&gt;&lt;/p&gt;" style="shape=parallelogram;html=1;strokeWidth=2;perimeter=parallelogramPerimeter;whiteSpace=wrap;rounded=1;arcSize=12;size=0.23;" vertex="1" parent="1">
          <mxGeometry x="254.63" y="990" width="370" height="160" as="geometry" />
        </mxCell>
        <mxCell id="8Dzk1mlNiPDe_cIW5CHu-59" style="edgeStyle=orthogonalEdgeStyle;rounded=0;orthogonalLoop=1;jettySize=auto;html=1;exitX=0.5;exitY=1;exitDx=0;exitDy=0;entryX=0.5;entryY=0;entryDx=0;entryDy=0;entryPerimeter=0;" edge="1" parent="1" source="8Dzk1mlNiPDe_cIW5CHu-14" target="8Dzk1mlNiPDe_cIW5CHu-2">
          <mxGeometry relative="1" as="geometry" />
        </mxCell>
        <mxCell id="8Dzk1mlNiPDe_cIW5CHu-14" value="&lt;p style=&quot;text-indent: -0.25in;&quot; class=&quot;MsoListParagraph&quot;&gt;&lt;font face=&quot;Arial Narrow, sans-serif&quot;&gt;DISPLAYS Total tuition fee, totalFee&lt;/font&gt;&lt;/p&gt;" style="shape=parallelogram;html=1;strokeWidth=2;perimeter=parallelogramPerimeter;whiteSpace=wrap;rounded=1;arcSize=12;size=0.23;" vertex="1" parent="1">
          <mxGeometry x="240" y="1310" width="400" height="150" as="geometry" />
        </mxCell>
        <mxCell id="8Dzk1mlNiPDe_cIW5CHu-15" value="INITIALIZE registration, registrationFee = 450&lt;br&gt;INITIALIZE unit fee, unitFee = 450&lt;br&gt;INITIALIZE penalty, penalty = 2260&lt;br&gt;INITIALIZE penalty fraction, penaltyFraction = 12" style="text;html=1;strokeColor=none;fillColor=none;align=center;verticalAlign=middle;whiteSpace=wrap;rounded=0;" vertex="1" parent="1">
          <mxGeometry x="302.5" y="110" width="255" height="27.5" as="geometry" />
        </mxCell>
        <mxCell id="8Dzk1mlNiPDe_cIW5CHu-58" style="edgeStyle=orthogonalEdgeStyle;rounded=0;orthogonalLoop=1;jettySize=auto;html=1;exitX=0.5;exitY=1;exitDx=0;exitDy=0;entryX=0.5;entryY=0;entryDx=0;entryDy=0;" edge="1" parent="1" source="8Dzk1mlNiPDe_cIW5CHu-55" target="8Dzk1mlNiPDe_cIW5CHu-14">
          <mxGeometry relative="1" as="geometry" />
        </mxCell>
        <mxCell id="8Dzk1mlNiPDe_cIW5CHu-55" value="&#xa;&lt;span style=&quot;color: rgb(0, 0, 0); font-family: &amp;quot;Arial Narrow&amp;quot;, sans-serif; font-size: 12px; font-style: normal; font-variant-ligatures: normal; font-variant-caps: normal; font-weight: 400; letter-spacing: normal; orphans: 2; text-align: center; text-indent: -24px; text-transform: none; widows: 2; word-spacing: 0px; -webkit-text-stroke-width: 0px; background-color: rgb(251, 251, 251); text-decoration-thickness: initial; text-decoration-style: initial; text-decoration-color: initial; float: none; display: inline !important;&quot;&gt;CALCULATE the sum of the firstFee and secondFee, totalFee&lt;/span&gt;&#xa;&#xa;" style="rounded=1;whiteSpace=wrap;html=1;absoluteArcSize=1;arcSize=14;strokeWidth=2;" vertex="1" parent="1">
          <mxGeometry x="298.69" y="1180" width="281.87" height="100" as="geometry" />
        </mxCell>
        <mxCell id="8Dzk1mlNiPDe_cIW5CHu-64" style="edgeStyle=orthogonalEdgeStyle;rounded=0;orthogonalLoop=1;jettySize=auto;html=1;exitX=0.5;exitY=1;exitDx=0;exitDy=0;" edge="1" parent="1" source="8Dzk1mlNiPDe_cIW5CHu-60" target="8Dzk1mlNiPDe_cIW5CHu-11">
          <mxGeometry relative="1" as="geometry" />
        </mxCell>
        <mxCell id="8Dzk1mlNiPDe_cIW5CHu-60" value="CALCULATE the total fee of the 2&lt;sup style=&quot;border-color: var(--border-color); font-family: &amp;quot;Arial Narrow&amp;quot;, sans-serif; text-indent: -24px;&quot;&gt;nd&lt;/sup&gt;&lt;span style=&quot;font-family: &amp;quot;Arial Narrow&amp;quot;, sans-serif; text-indent: -24px;&quot;&gt;&amp;nbsp;semester, secondFee&lt;/span&gt;" style="rounded=1;whiteSpace=wrap;html=1;absoluteArcSize=1;arcSize=14;strokeWidth=2;" vertex="1" parent="1">
          <mxGeometry x="300" y="710" width="280" height="100" as="geometry" />
        </mxCell>
        <mxCell id="8Dzk1mlNiPDe_cIW5CHu-66" style="edgeStyle=orthogonalEdgeStyle;rounded=0;orthogonalLoop=1;jettySize=auto;html=1;exitX=0.5;exitY=1;exitDx=0;exitDy=0;entryX=0.534;entryY=0;entryDx=0;entryDy=0;entryPerimeter=0;" edge="1" parent="1" source="8Dzk1mlNiPDe_cIW5CHu-65" target="8Dzk1mlNiPDe_cIW5CHu-9">
          <mxGeometry relative="1" as="geometry" />
        </mxCell>
        <mxCell id="8Dzk1mlNiPDe_cIW5CHu-65" value="CALCULATE the&lt;br style=&quot;border-color: var(--border-color); font-family: &amp;quot;Arial Narrow&amp;quot;, sans-serif; text-indent: -24px;&quot;&gt;&lt;span style=&quot;font-family: &amp;quot;Arial Narrow&amp;quot;, sans-serif; text-indent: -24px;&quot;&gt;total fee of the 1&lt;/span&gt;&lt;sup style=&quot;border-color: var(--border-color); font-family: &amp;quot;Arial Narrow&amp;quot;, sans-serif; text-indent: -24px;&quot;&gt;st&lt;/sup&gt;&lt;span style=&quot;font-family: &amp;quot;Arial Narrow&amp;quot;, sans-serif; text-indent: -24px;&quot;&gt;&amp;nbsp;semester firstFee = registrationFee + unitFee *&lt;/span&gt;&lt;br style=&quot;border-color: var(--border-color); font-family: &amp;quot;Arial Narrow&amp;quot;, sans-serif; text-indent: -24px;&quot;&gt;&lt;span style=&quot;font-family: &amp;quot;Arial Narrow&amp;quot;, sans-serif; text-indent: -24px;&quot;&gt;firstUnits + penalty * (firstUnits / penaltyFraction), firstFee&lt;/span&gt;" style="rounded=1;whiteSpace=wrap;html=1;absoluteArcSize=1;arcSize=14;strokeWidth=2;" vertex="1" parent="1">
          <mxGeometry x="305.63" y="330" width="299.37" height="140" as="geometry" />
        </mxCell>
      </root>
    </mxGraphModel>
  </diagram>
  <diagram id="PXJzOJjtOFIK2R9iqKRZ" name="Page-2">
    <mxGraphModel dx="350" dy="578" grid="1" gridSize="10" guides="1" tooltips="1" connect="1" arrows="1" fold="1" page="1" pageScale="1" pageWidth="850" pageHeight="1100" math="0" shadow="0">
      <root>
        <mxCell id="0" />
        <mxCell id="1" parent="0" />
        <mxCell id="s5Fgqerv_K0YjQwX8oYS-9" style="edgeStyle=orthogonalEdgeStyle;rounded=0;orthogonalLoop=1;jettySize=auto;html=1;exitX=0.5;exitY=1;exitDx=0;exitDy=0;exitPerimeter=0;" edge="1" parent="1" source="s5Fgqerv_K0YjQwX8oYS-1" target="s5Fgqerv_K0YjQwX8oYS-8">
          <mxGeometry relative="1" as="geometry" />
        </mxCell>
        <mxCell id="s5Fgqerv_K0YjQwX8oYS-1" value="&lt;b&gt;START&lt;br&gt;&lt;/b&gt;" style="strokeWidth=2;html=1;shape=mxgraph.flowchart.terminator;whiteSpace=wrap;" vertex="1" parent="1">
          <mxGeometry x="250" y="90" width="100" height="60" as="geometry" />
        </mxCell>
        <mxCell id="s5Fgqerv_K0YjQwX8oYS-2" value="&lt;b&gt;END&lt;br&gt;&lt;/b&gt;" style="strokeWidth=2;html=1;shape=mxgraph.flowchart.terminator;whiteSpace=wrap;" vertex="1" parent="1">
          <mxGeometry x="250" y="580" width="100" height="60" as="geometry" />
        </mxCell>
        <mxCell id="s5Fgqerv_K0YjQwX8oYS-11" style="edgeStyle=orthogonalEdgeStyle;rounded=0;orthogonalLoop=1;jettySize=auto;html=1;exitX=0.5;exitY=1;exitDx=0;exitDy=0;" edge="1" parent="1" source="s5Fgqerv_K0YjQwX8oYS-4" target="s5Fgqerv_K0YjQwX8oYS-5">
          <mxGeometry relative="1" as="geometry" />
        </mxCell>
        <mxCell id="s5Fgqerv_K0YjQwX8oYS-4" value="&lt;p style=&quot;text-indent: -0.25in;&quot; class=&quot;MsoListParagraph&quot;&gt;&lt;span style=&quot;font-family: &amp;quot;Arial Narrow&amp;quot;, sans-serif;&quot; lang=&quot;EN-US&quot;&gt;GETS the last&lt;br/&gt;two digits from anyNumber, num1, num2&lt;/span&gt;&lt;/p&gt;" style="shape=parallelogram;html=1;strokeWidth=2;perimeter=parallelogramPerimeter;whiteSpace=wrap;rounded=1;arcSize=12;size=0.23;" vertex="1" parent="1">
          <mxGeometry x="165" y="270" width="270" height="60" as="geometry" />
        </mxCell>
        <mxCell id="s5Fgqerv_K0YjQwX8oYS-12" style="edgeStyle=orthogonalEdgeStyle;rounded=0;orthogonalLoop=1;jettySize=auto;html=1;exitX=0.5;exitY=1;exitDx=0;exitDy=0;" edge="1" parent="1" source="s5Fgqerv_K0YjQwX8oYS-5" target="s5Fgqerv_K0YjQwX8oYS-7">
          <mxGeometry relative="1" as="geometry" />
        </mxCell>
        <mxCell id="s5Fgqerv_K0YjQwX8oYS-5" value="&lt;p style=&quot;text-indent: -0.25in; font-size: 11px;&quot; class=&quot;MsoListParagraph&quot;&gt;&lt;span style=&quot;font-family: &amp;quot;Arial Narrow&amp;quot;, sans-serif;&quot; lang=&quot;EN-US&quot;&gt;&lt;span style=&quot;white-space: pre;&quot;&gt;&#x9;&lt;/span&gt;CALCULATE num1 and num2, sum&lt;/span&gt;&lt;/p&gt;" style="rounded=1;whiteSpace=wrap;html=1;absoluteArcSize=1;arcSize=14;strokeWidth=2;" vertex="1" parent="1">
          <mxGeometry x="215" y="360" width="170" height="100" as="geometry" />
        </mxCell>
        <mxCell id="s5Fgqerv_K0YjQwX8oYS-13" style="edgeStyle=orthogonalEdgeStyle;rounded=0;orthogonalLoop=1;jettySize=auto;html=1;exitX=0.5;exitY=1;exitDx=0;exitDy=0;entryX=0.5;entryY=0;entryDx=0;entryDy=0;entryPerimeter=0;" edge="1" parent="1" source="s5Fgqerv_K0YjQwX8oYS-7" target="s5Fgqerv_K0YjQwX8oYS-2">
          <mxGeometry relative="1" as="geometry" />
        </mxCell>
        <mxCell id="s5Fgqerv_K0YjQwX8oYS-7" value="&lt;p style=&quot;text-indent: -0.25in;&quot; class=&quot;MsoListParagraph&quot;&gt;&lt;font face=&quot;Arial Narrow, sans-serif&quot;&gt;DISPLAYS sum&lt;/font&gt;&lt;/p&gt;" style="shape=parallelogram;html=1;strokeWidth=2;perimeter=parallelogramPerimeter;whiteSpace=wrap;rounded=1;arcSize=12;size=0.23;" vertex="1" parent="1">
          <mxGeometry x="165" y="490" width="270" height="60" as="geometry" />
        </mxCell>
        <mxCell id="s5Fgqerv_K0YjQwX8oYS-10" style="edgeStyle=orthogonalEdgeStyle;rounded=0;orthogonalLoop=1;jettySize=auto;html=1;exitX=0.5;exitY=1;exitDx=0;exitDy=0;entryX=0.5;entryY=0;entryDx=0;entryDy=0;" edge="1" parent="1" source="s5Fgqerv_K0YjQwX8oYS-8" target="s5Fgqerv_K0YjQwX8oYS-4">
          <mxGeometry relative="1" as="geometry" />
        </mxCell>
        <mxCell id="s5Fgqerv_K0YjQwX8oYS-8" value="&lt;p style=&quot;text-indent: -0.25in;&quot; class=&quot;MsoListParagraph&quot;&gt;PROMPTS and GETS&lt;br style=&quot;border-color: var(--border-color); font-family: &amp;quot;Arial Narrow&amp;quot;, sans-serif;&quot;&gt;&lt;span style=&quot;font-family: &amp;quot;Arial Narrow&amp;quot;, sans-serif;&quot;&gt;any number, anyNumber&lt;/span&gt;&lt;br&gt;&lt;/p&gt;" style="shape=parallelogram;html=1;strokeWidth=2;perimeter=parallelogramPerimeter;whiteSpace=wrap;rounded=1;arcSize=12;size=0.23;" vertex="1" parent="1">
          <mxGeometry x="165" y="180" width="270" height="60" as="geometry" />
        </mxCell>
      </root>
    </mxGraphModel>
  </diagram>
  <diagram id="G3oZWljq_KudL5GrucEC" name="Page-3">
    <mxGraphModel dx="819" dy="451" grid="1" gridSize="10" guides="1" tooltips="1" connect="1" arrows="1" fold="1" page="1" pageScale="1" pageWidth="850" pageHeight="1100" math="0" shadow="0">
      <root>
        <mxCell id="0" />
        <mxCell id="1" parent="0" />
        <mxCell id="N_GuSySPnStlbb4_uVnF-7" style="edgeStyle=orthogonalEdgeStyle;rounded=0;orthogonalLoop=1;jettySize=auto;html=1;exitX=0.5;exitY=1;exitDx=0;exitDy=0;exitPerimeter=0;" edge="1" parent="1" source="N_GuSySPnStlbb4_uVnF-1" target="N_GuSySPnStlbb4_uVnF-3">
          <mxGeometry relative="1" as="geometry" />
        </mxCell>
        <mxCell id="N_GuSySPnStlbb4_uVnF-1" value="&lt;b&gt;START&lt;br&gt;&lt;/b&gt;" style="strokeWidth=2;html=1;shape=mxgraph.flowchart.terminator;whiteSpace=wrap;" vertex="1" parent="1">
          <mxGeometry x="200" y="70" width="100" height="60" as="geometry" />
        </mxCell>
        <mxCell id="N_GuSySPnStlbb4_uVnF-2" value="&lt;b&gt;END&lt;br&gt;&lt;/b&gt;" style="strokeWidth=2;html=1;shape=mxgraph.flowchart.terminator;whiteSpace=wrap;" vertex="1" parent="1">
          <mxGeometry x="200" y="470" width="100" height="60" as="geometry" />
        </mxCell>
        <mxCell id="N_GuSySPnStlbb4_uVnF-8" style="edgeStyle=orthogonalEdgeStyle;rounded=0;orthogonalLoop=1;jettySize=auto;html=1;exitX=0.5;exitY=1;exitDx=0;exitDy=0;entryX=0.5;entryY=0;entryDx=0;entryDy=0;" edge="1" parent="1" source="N_GuSySPnStlbb4_uVnF-3" target="N_GuSySPnStlbb4_uVnF-4">
          <mxGeometry relative="1" as="geometry" />
        </mxCell>
        <mxCell id="N_GuSySPnStlbb4_uVnF-3" value="&lt;p style=&quot;text-indent: -0.25in;&quot; class=&quot;MsoListParagraph&quot;&gt;&lt;span style=&quot;font-family: &amp;quot;Arial Narrow&amp;quot;, sans-serif;&quot; lang=&quot;EN-US&quot;&gt;PROMPTS and GETS&lt;br&gt;yearly pay, yearlyPay&lt;/span&gt;&lt;/p&gt;" style="shape=parallelogram;html=1;strokeWidth=2;perimeter=parallelogramPerimeter;whiteSpace=wrap;rounded=1;arcSize=12;size=0.23;" vertex="1" parent="1">
          <mxGeometry x="150" y="160" width="200" height="60" as="geometry" />
        </mxCell>
        <mxCell id="N_GuSySPnStlbb4_uVnF-9" style="edgeStyle=orthogonalEdgeStyle;rounded=0;orthogonalLoop=1;jettySize=auto;html=1;" edge="1" parent="1" source="N_GuSySPnStlbb4_uVnF-4" target="N_GuSySPnStlbb4_uVnF-6">
          <mxGeometry relative="1" as="geometry" />
        </mxCell>
        <mxCell id="N_GuSySPnStlbb4_uVnF-4" value="&lt;p style=&quot;text-indent: -0.25in;&quot; class=&quot;MsoListParagraph&quot;&gt;&lt;span style=&quot;font-family: &amp;quot;Arial Narrow&amp;quot;, sans-serif;&quot; lang=&quot;EN-US&quot;&gt;CALCULATE weekly&lt;br&gt;pay by diving yearlyPay by 52, weeklyPay&lt;/span&gt;&lt;/p&gt;" style="rounded=1;whiteSpace=wrap;html=1;absoluteArcSize=1;arcSize=14;strokeWidth=2;" vertex="1" parent="1">
          <mxGeometry x="170" y="250" width="160" height="100" as="geometry" />
        </mxCell>
        <mxCell id="N_GuSySPnStlbb4_uVnF-11" style="edgeStyle=orthogonalEdgeStyle;rounded=0;orthogonalLoop=1;jettySize=auto;html=1;" edge="1" parent="1" source="N_GuSySPnStlbb4_uVnF-6" target="N_GuSySPnStlbb4_uVnF-2">
          <mxGeometry relative="1" as="geometry" />
        </mxCell>
        <mxCell id="N_GuSySPnStlbb4_uVnF-6" value="&lt;p style=&quot;text-indent: -0.25in;&quot; class=&quot;MsoListParagraph&quot;&gt;&lt;font face=&quot;Arial Narrow, sans-serif&quot;&gt;DISPLAYS weeklyPay&lt;/font&gt;&lt;/p&gt;" style="shape=parallelogram;html=1;strokeWidth=2;perimeter=parallelogramPerimeter;whiteSpace=wrap;rounded=1;arcSize=12;size=0.23;" vertex="1" parent="1">
          <mxGeometry x="150" y="380" width="200" height="60" as="geometry" />
        </mxCell>
      </root>
    </mxGraphModel>
  </diagram>
</mxfile>
